{
 "cells": [
  {
   "cell_type": "code",
   "execution_count": 25,
   "metadata": {},
   "outputs": [
    {
     "name": "stdout",
     "output_type": "stream",
     "text": [
      "Requirement already satisfied: mido in /usr/local/lib/python3.6/site-packages\r\n"
     ]
    }
   ],
   "source": [
    "!pip install mido"
   ]
  },
  {
   "cell_type": "code",
   "execution_count": 14,
   "metadata": {},
   "outputs": [],
   "source": [
    "import mido\n",
    "from mido import MidiFile"
   ]
  },
  {
   "cell_type": "code",
   "execution_count": 22,
   "metadata": {},
   "outputs": [],
   "source": [
    "file = MidiFile('data/')"
   ]
  },
  {
   "cell_type": "code",
   "execution_count": 23,
   "metadata": {},
   "outputs": [],
   "source": [
    "message = mido.Message('program_change', program=10)"
   ]
  },
  {
   "cell_type": "code",
   "execution_count": 24,
   "metadata": {},
   "outputs": [
    {
     "name": "stdout",
     "output_type": "stream",
     "text": [
      "<meta message time_signature numerator=4 denominator=4 clocks_per_click=24 notated_32nd_notes_per_beat=8 time=0>\n",
      "<meta message set_tempo tempo=468750 time=0>\n",
      "<meta message track_name name='Lead' time=0>\n",
      "control_change channel=7 control=10 value=64 time=0\n",
      "control_change channel=7 control=7 value=100 time=0\n",
      "pitchwheel channel=7 pitch=0 time=0\n",
      "control_change channel=7 control=101 value=0 time=0\n",
      "control_change channel=7 control=100 value=0 time=0\n",
      "control_change channel=7 control=6 value=12 time=0\n",
      "control_change channel=7 control=10 value=64 time=0\n",
      "control_change channel=7 control=7 value=100 time=0\n",
      "pitchwheel channel=7 pitch=0 time=0\n",
      "program_change channel=7 program=80 time=0\n",
      "control_change channel=7 control=101 value=0 time=0\n",
      "control_change channel=7 control=100 value=0 time=0\n",
      "control_change channel=7 control=6 value=12 time=0\n",
      "control_change channel=7 control=10 value=64 time=0\n",
      "control_change channel=7 control=7 value=100 time=0\n",
      "pitchwheel channel=7 pitch=0 time=0\n",
      "program_change channel=7 program=80 time=0\n",
      "control_change channel=7 control=101 value=0 time=0\n",
      "control_change channel=7 control=100 value=0 time=0\n",
      "control_change channel=7 control=6 value=12 time=0\n",
      "control_change channel=7 control=10 value=64 time=0\n",
      "control_change channel=7 control=7 value=100 time=0\n",
      "pitchwheel channel=7 pitch=0 time=0\n",
      "program_change channel=7 program=80 time=0\n",
      "note_on channel=7 note=69 velocity=100 time=0\n",
      "<meta message track_name name='Chords' time=0>\n",
      "control_change channel=12 control=10 value=64 time=0\n",
      "control_change channel=12 control=7 value=100 time=0\n",
      "pitchwheel channel=12 pitch=0 time=0\n",
      "control_change channel=12 control=101 value=0 time=0\n",
      "control_change channel=12 control=100 value=0 time=0\n",
      "control_change channel=12 control=6 value=12 time=0\n",
      "control_change channel=12 control=10 value=64 time=0\n",
      "control_change channel=12 control=7 value=100 time=0\n",
      "pitchwheel channel=12 pitch=0 time=0\n",
      "program_change channel=12 program=90 time=0\n",
      "control_change channel=12 control=101 value=0 time=0\n",
      "control_change channel=12 control=100 value=0 time=0\n",
      "control_change channel=12 control=6 value=12 time=0\n",
      "control_change channel=12 control=10 value=64 time=0\n",
      "control_change channel=12 control=7 value=100 time=0\n",
      "pitchwheel channel=12 pitch=0 time=0\n",
      "program_change channel=12 program=90 time=0\n",
      "control_change channel=12 control=101 value=0 time=0\n",
      "control_change channel=12 control=100 value=0 time=0\n",
      "control_change channel=12 control=6 value=12 time=0\n",
      "control_change channel=12 control=10 value=64 time=0\n",
      "control_change channel=12 control=7 value=100 time=0\n",
      "pitchwheel channel=12 pitch=0 time=0\n",
      "program_change channel=12 program=90 time=0\n",
      "<meta message track_name name='Bass' time=0>\n",
      "control_change channel=8 control=10 value=64 time=0\n",
      "control_change channel=8 control=7 value=100 time=0\n",
      "pitchwheel channel=8 pitch=0 time=0\n",
      "control_change channel=8 control=101 value=0 time=0\n",
      "control_change channel=8 control=100 value=0 time=0\n",
      "control_change channel=8 control=6 value=12 time=0\n",
      "control_change channel=8 control=10 value=64 time=0\n",
      "control_change channel=8 control=7 value=100 time=0\n",
      "pitchwheel channel=8 pitch=0 time=0\n",
      "program_change channel=8 program=87 time=0\n",
      "control_change channel=8 control=101 value=0 time=0\n",
      "control_change channel=8 control=100 value=0 time=0\n",
      "control_change channel=8 control=6 value=12 time=0\n",
      "control_change channel=8 control=10 value=64 time=0\n",
      "control_change channel=8 control=7 value=100 time=0\n",
      "pitchwheel channel=8 pitch=0 time=0\n",
      "program_change channel=8 program=87 time=0\n",
      "control_change channel=8 control=101 value=0 time=0\n",
      "control_change channel=8 control=100 value=0 time=0\n",
      "control_change channel=8 control=6 value=12 time=0\n",
      "control_change channel=8 control=10 value=64 time=0\n",
      "control_change channel=8 control=7 value=100 time=0\n",
      "pitchwheel channel=8 pitch=0 time=0\n",
      "program_change channel=8 program=87 time=0\n",
      "note_on channel=8 note=40 velocity=100 time=0\n",
      "<meta message track_name name='Drums' time=0>\n",
      "control_change channel=9 control=10 value=64 time=0\n",
      "control_change channel=9 control=7 value=100 time=0\n",
      "pitchwheel channel=9 pitch=0 time=0\n",
      "control_change channel=9 control=101 value=0 time=0\n",
      "control_change channel=9 control=100 value=0 time=0\n",
      "control_change channel=9 control=6 value=12 time=0\n",
      "control_change channel=9 control=10 value=64 time=0\n",
      "control_change channel=9 control=7 value=100 time=0\n",
      "pitchwheel channel=9 pitch=0 time=0\n",
      "program_change channel=9 program=0 time=0\n",
      "control_change channel=9 control=101 value=0 time=0\n",
      "control_change channel=9 control=100 value=0 time=0\n",
      "control_change channel=9 control=6 value=12 time=0\n",
      "control_change channel=9 control=10 value=64 time=0\n",
      "control_change channel=9 control=7 value=100 time=0\n",
      "pitchwheel channel=9 pitch=0 time=0\n",
      "program_change channel=9 program=0 time=0\n",
      "control_change channel=9 control=101 value=0 time=0\n",
      "control_change channel=9 control=100 value=0 time=0\n",
      "control_change channel=9 control=6 value=12 time=0\n",
      "control_change channel=9 control=10 value=64 time=0\n",
      "control_change channel=9 control=7 value=100 time=0\n",
      "pitchwheel channel=9 pitch=0 time=0\n",
      "program_change channel=9 program=0 time=0\n",
      "<meta message track_name name='deadmau5 - 2448' time=0>\n",
      "control_change channel=0 control=10 value=64 time=0\n",
      "control_change channel=0 control=7 value=100 time=0\n",
      "pitchwheel channel=0 pitch=0 time=0\n",
      "control_change channel=0 control=101 value=0 time=0\n",
      "control_change channel=0 control=100 value=0 time=0\n",
      "control_change channel=0 control=6 value=12 time=0\n",
      "control_change channel=0 control=10 value=64 time=0\n",
      "control_change channel=0 control=7 value=100 time=0\n",
      "pitchwheel channel=0 pitch=0 time=0\n",
      "program_change channel=0 program=0 time=0\n",
      "control_change channel=0 control=101 value=0 time=0\n",
      "control_change channel=0 control=100 value=0 time=0\n",
      "control_change channel=0 control=6 value=12 time=0\n",
      "control_change channel=0 control=10 value=64 time=0\n",
      "control_change channel=0 control=7 value=100 time=0\n",
      "pitchwheel channel=0 pitch=0 time=0\n",
      "program_change channel=0 program=0 time=0\n",
      "control_change channel=0 control=101 value=0 time=0\n",
      "control_change channel=0 control=100 value=0 time=0\n",
      "control_change channel=0 control=6 value=12 time=0\n",
      "control_change channel=0 control=10 value=64 time=0\n",
      "control_change channel=0 control=7 value=100 time=0\n",
      "pitchwheel channel=0 pitch=0 time=0\n",
      "program_change channel=0 program=0 time=0\n",
      "<meta message track_name name='Carlo Prato' time=0>\n",
      "control_change channel=0 control=10 value=64 time=0\n",
      "control_change channel=0 control=7 value=100 time=0\n",
      "pitchwheel channel=0 pitch=0 time=0\n",
      "control_change channel=0 control=101 value=0 time=0\n",
      "control_change channel=0 control=100 value=0 time=0\n",
      "control_change channel=0 control=6 value=12 time=0\n",
      "control_change channel=0 control=10 value=64 time=0\n",
      "control_change channel=0 control=7 value=100 time=0\n",
      "pitchwheel channel=0 pitch=0 time=0\n",
      "program_change channel=0 program=0 time=0\n",
      "control_change channel=0 control=101 value=0 time=0\n",
      "control_change channel=0 control=100 value=0 time=0\n",
      "control_change channel=0 control=6 value=12 time=0\n",
      "control_change channel=0 control=10 value=64 time=0\n",
      "control_change channel=0 control=7 value=100 time=0\n",
      "pitchwheel channel=0 pitch=0 time=0\n",
      "program_change channel=0 program=0 time=0\n",
      "control_change channel=0 control=101 value=0 time=0\n",
      "control_change channel=0 control=100 value=0 time=0\n",
      "control_change channel=0 control=6 value=12 time=0\n",
      "control_change channel=0 control=10 value=64 time=0\n",
      "control_change channel=0 control=7 value=100 time=0\n",
      "pitchwheel channel=0 pitch=0 time=0\n",
      "program_change channel=0 program=0 time=0\n",
      "<meta message track_name name='cprato.com' time=0>\n",
      "control_change channel=0 control=10 value=64 time=0\n",
      "control_change channel=0 control=7 value=100 time=0\n",
      "pitchwheel channel=0 pitch=0 time=0\n",
      "control_change channel=0 control=101 value=0 time=0\n",
      "control_change channel=0 control=100 value=0 time=0\n",
      "control_change channel=0 control=6 value=12 time=0\n",
      "control_change channel=0 control=10 value=64 time=0\n",
      "control_change channel=0 control=7 value=100 time=0\n",
      "pitchwheel channel=0 pitch=0 time=0\n",
      "control_change channel=0 control=101 value=0 time=0\n",
      "control_change channel=0 control=100 value=0 time=0\n",
      "control_change channel=0 control=6 value=12 time=0\n",
      "control_change channel=0 control=10 value=64 time=0\n",
      "control_change channel=0 control=7 value=100 time=0\n",
      "pitchwheel channel=0 pitch=0 time=0\n",
      "control_change channel=0 control=101 value=0 time=0\n",
      "control_change channel=0 control=100 value=0 time=0\n",
      "control_change channel=0 control=6 value=12 time=0\n",
      "control_change channel=0 control=10 value=64 time=0\n",
      "control_change channel=0 control=7 value=100 time=0\n",
      "pitchwheel channel=0 pitch=0 time=0\n",
      "note_off channel=7 note=69 velocity=64 time=0.1171875\n",
      "note_on channel=7 note=71 velocity=100 time=0\n",
      "note_off channel=7 note=71 velocity=64 time=0.1171875\n",
      "note_on channel=7 note=76 velocity=100 time=0\n",
      "note_off channel=7 note=76 velocity=64 time=1.0546875\n",
      "note_on channel=7 note=76 velocity=100 time=0\n",
      "note_off channel=7 note=76 velocity=64 time=0.234375\n",
      "note_on channel=7 note=71 velocity=100 time=0\n",
      "note_off channel=7 note=71 velocity=64 time=0.1171875\n",
      "note_on channel=7 note=76 velocity=100 time=0\n",
      "note_off channel=7 note=76 velocity=64 time=0.1171875\n",
      "note_on channel=7 note=69 velocity=100 time=0\n",
      "note_off channel=7 note=69 velocity=64 time=0.1171875\n",
      "note_on channel=7 note=78 velocity=100 time=0\n",
      "note_off channel=8 note=40 velocity=64 time=0\n",
      "note_on channel=8 note=47 velocity=100 time=0\n",
      "note_off channel=7 note=78 velocity=64 time=1.40625\n",
      "note_on channel=7 note=78 velocity=100 time=0\n",
      "note_off channel=7 note=78 velocity=64 time=0.234375\n",
      "note_on channel=7 note=76 velocity=100 time=0\n",
      "note_off channel=7 note=76 velocity=64 time=0.234375\n",
      "note_on channel=7 note=81 velocity=100 time=0\n",
      "note_off channel=8 note=47 velocity=64 time=0\n",
      "note_on channel=8 note=38 velocity=100 time=0\n",
      "note_off channel=7 note=81 velocity=64 time=0.234375\n",
      "note_on channel=7 note=78 velocity=100 time=0\n",
      "note_off channel=7 note=78 velocity=64 time=0.234375\n",
      "note_on channel=7 note=74 velocity=100 time=0\n",
      "note_off channel=7 note=74 velocity=64 time=0.234375\n",
      "note_on channel=7 note=76 velocity=100 time=0\n",
      "note_off channel=8 note=38 velocity=64 time=0\n",
      "note_on channel=8 note=45 velocity=100 time=0\n",
      "note_off channel=7 note=76 velocity=64 time=3.046875\n",
      "note_on channel=7 note=81 velocity=100 time=0\n",
      "note_off channel=8 note=45 velocity=64 time=0\n",
      "note_on channel=8 note=40 velocity=100 time=0\n",
      "note_off channel=7 note=81 velocity=64 time=0.1171875\n",
      "note_on channel=7 note=83 velocity=100 time=0\n",
      "note_off channel=7 note=83 velocity=64 time=0.1171875\n",
      "note_on channel=7 note=76 velocity=100 time=0\n",
      "note_off channel=7 note=76 velocity=64 time=1.0546875\n",
      "note_on channel=7 note=86 velocity=100 time=0\n",
      "note_off channel=7 note=86 velocity=64 time=0.234375\n",
      "note_on channel=7 note=88 velocity=100 time=0\n",
      "note_off channel=7 note=88 velocity=64 time=0.1171875\n",
      "note_on channel=7 note=76 velocity=100 time=0\n",
      "note_off channel=7 note=76 velocity=64 time=0.1171875\n",
      "note_on channel=7 note=74 velocity=100 time=0\n",
      "note_off channel=7 note=74 velocity=64 time=0.1171875\n",
      "note_on channel=7 note=81 velocity=100 time=0\n",
      "note_off channel=8 note=40 velocity=64 time=0\n",
      "note_on channel=8 note=47 velocity=100 time=0\n",
      "note_off channel=7 note=81 velocity=64 time=1.40625\n",
      "note_on channel=7 note=83 velocity=100 time=0\n",
      "note_off channel=7 note=83 velocity=64 time=0.234375\n",
      "note_on channel=7 note=81 velocity=100 time=0\n",
      "note_off channel=8 note=47 velocity=64 time=0.234375\n",
      "note_on channel=8 note=38 velocity=100 time=0\n",
      "note_off channel=7 note=81 velocity=64 time=0.234375\n",
      "note_on channel=7 note=78 velocity=100 time=0\n",
      "note_off channel=7 note=78 velocity=64 time=0.234375\n",
      "note_on channel=7 note=74 velocity=100 time=0\n",
      "note_off channel=7 note=74 velocity=64 time=0.234375\n",
      "note_on channel=7 note=76 velocity=100 time=0\n",
      "note_off channel=8 note=38 velocity=64 time=0\n",
      "note_on channel=8 note=45 velocity=100 time=0\n",
      "note_off channel=7 note=76 velocity=64 time=3.046875\n",
      "note_on channel=7 note=81 velocity=100 time=0\n",
      "note_off channel=8 note=45 velocity=64 time=0\n",
      "note_on channel=8 note=40 velocity=100 time=0\n",
      "note_on channel=9 note=36 velocity=98 time=0\n",
      "note_on channel=9 note=42 velocity=98 time=0\n",
      "note_off channel=7 note=81 velocity=64 time=0.1171875\n",
      "note_on channel=7 note=83 velocity=100 time=0\n",
      "note_off channel=7 note=83 velocity=64 time=0.1171875\n",
      "note_on channel=7 note=88 velocity=100 time=0\n",
      "note_off channel=9 note=42 velocity=64 time=0\n",
      "note_off channel=9 note=36 velocity=64 time=0\n",
      "note_on channel=9 note=36 velocity=98 time=0.234375\n",
      "note_on channel=9 note=42 velocity=98 time=0\n",
      "note_off channel=9 note=36 velocity=64 time=0.234375\n",
      "note_off channel=9 note=42 velocity=64 time=0\n",
      "note_on channel=9 note=36 velocity=98 time=0.234375\n",
      "note_on channel=9 note=42 velocity=98 time=0\n",
      "note_off channel=9 note=36 velocity=64 time=0.234375\n",
      "note_off channel=9 note=42 velocity=64 time=0\n",
      "note_off channel=7 note=88 velocity=64 time=0.1171875\n",
      "note_on channel=7 note=88 velocity=100 time=0\n",
      "note_on channel=9 note=36 velocity=98 time=0.1171875\n",
      "note_on channel=9 note=42 velocity=98 time=0\n",
      "note_off channel=7 note=88 velocity=64 time=0.1171875\n",
      "note_on channel=7 note=83 velocity=100 time=0\n",
      "note_off channel=7 note=83 velocity=64 time=0.1171875\n",
      "note_on channel=7 note=88 velocity=100 time=0\n",
      "note_off channel=9 note=36 velocity=64 time=0\n",
      "note_off channel=9 note=42 velocity=64 time=0\n",
      "note_off channel=7 note=88 velocity=64 time=0.1171875\n",
      "note_on channel=7 note=69 velocity=100 time=0\n",
      "note_off channel=7 note=69 velocity=64 time=0.1171875\n",
      "note_on channel=7 note=78 velocity=100 time=0\n",
      "note_off channel=8 note=40 velocity=64 time=0\n",
      "note_on channel=8 note=47 velocity=100 time=0\n",
      "note_on channel=9 note=36 velocity=98 time=0\n",
      "note_on channel=9 note=42 velocity=98 time=0\n",
      "note_off channel=9 note=42 velocity=64 time=0.234375\n",
      "note_off channel=9 note=36 velocity=64 time=0\n",
      "note_on channel=9 note=36 velocity=98 time=0.234375\n",
      "note_on channel=9 note=42 velocity=98 time=0\n",
      "note_off channel=9 note=36 velocity=64 time=0.234375\n",
      "note_off channel=9 note=42 velocity=64 time=0\n",
      "note_on channel=9 note=36 velocity=98 time=0.234375\n",
      "note_on channel=9 note=42 velocity=98 time=0\n",
      "note_off channel=9 note=36 velocity=64 time=0.234375\n",
      "note_off channel=9 note=42 velocity=64 time=0\n",
      "note_off channel=7 note=78 velocity=64 time=0.234375\n",
      "note_on channel=7 note=78 velocity=100 time=0\n",
      "note_on channel=9 note=36 velocity=98 time=0\n",
      "note_on channel=9 note=42 velocity=98 time=0\n",
      "note_off channel=7 note=78 velocity=64 time=0.234375\n",
      "note_on channel=7 note=76 velocity=100 time=0\n",
      "note_off channel=9 note=42 velocity=64 time=0\n",
      "note_off channel=9 note=36 velocity=64 time=0\n",
      "note_off channel=7 note=76 velocity=64 time=0.234375\n",
      "note_on channel=7 note=81 velocity=100 time=0\n",
      "note_off channel=8 note=47 velocity=64 time=0\n",
      "note_on channel=8 note=38 velocity=100 time=0\n",
      "note_on channel=9 note=36 velocity=98 time=0\n",
      "note_on channel=9 note=42 velocity=98 time=0\n",
      "note_off channel=7 note=81 velocity=64 time=0.234375\n",
      "note_on channel=7 note=78 velocity=100 time=0\n",
      "note_off channel=9 note=42 velocity=64 time=0\n",
      "note_off channel=9 note=36 velocity=64 time=0\n",
      "note_off channel=7 note=78 velocity=64 time=0.234375\n",
      "note_on channel=7 note=74 velocity=100 time=0\n",
      "note_on channel=9 note=36 velocity=98 time=0\n",
      "note_on channel=9 note=42 velocity=98 time=0\n",
      "note_off channel=7 note=74 velocity=64 time=0.234375\n",
      "note_on channel=7 note=76 velocity=100 time=0\n",
      "note_off channel=8 note=38 velocity=64 time=0\n",
      "note_on channel=8 note=45 velocity=100 time=0\n",
      "note_off channel=9 note=42 velocity=64 time=0\n",
      "note_off channel=9 note=36 velocity=64 time=0\n",
      "note_on channel=9 note=36 velocity=98 time=0.234375\n",
      "note_on channel=9 note=42 velocity=98 time=0\n",
      "note_off channel=9 note=36 velocity=64 time=0.234375\n",
      "note_off channel=9 note=42 velocity=64 time=0\n",
      "note_on channel=9 note=36 velocity=98 time=0.234375\n",
      "note_on channel=9 note=42 velocity=98 time=0\n",
      "note_off channel=9 note=36 velocity=64 time=0.234375\n",
      "note_off channel=9 note=42 velocity=64 time=0\n",
      "note_on channel=9 note=36 velocity=98 time=0.234375\n",
      "note_on channel=9 note=42 velocity=98 time=0\n",
      "note_off channel=9 note=36 velocity=64 time=0.234375\n",
      "note_off channel=9 note=42 velocity=64 time=0\n",
      "note_on channel=9 note=36 velocity=98 time=0.234375\n",
      "note_on channel=9 note=42 velocity=98 time=0\n",
      "note_off channel=9 note=36 velocity=64 time=0.234375\n",
      "note_off channel=9 note=42 velocity=64 time=0\n",
      "note_on channel=9 note=36 velocity=98 time=0.234375\n",
      "note_on channel=9 note=42 velocity=98 time=0\n",
      "note_off channel=9 note=36 velocity=64 time=0.234375\n",
      "note_off channel=9 note=42 velocity=64 time=0\n",
      "note_on channel=9 note=36 velocity=98 time=0.234375\n",
      "note_on channel=9 note=42 velocity=98 time=0\n",
      "note_off channel=9 note=36 velocity=64 time=0.234375\n",
      "note_off channel=9 note=42 velocity=64 time=0\n",
      "note_off channel=7 note=76 velocity=64 time=0.234375\n",
      "note_on channel=7 note=81 velocity=100 time=0\n",
      "note_off channel=8 note=45 velocity=64 time=0\n",
      "note_on channel=8 note=40 velocity=100 time=0\n",
      "note_on channel=9 note=36 velocity=98 time=0\n",
      "note_on channel=9 note=42 velocity=98 time=0\n",
      "note_off channel=7 note=81 velocity=64 time=0.1171875\n",
      "note_on channel=7 note=83 velocity=100 time=0\n",
      "note_off channel=7 note=83 velocity=64 time=0.1171875\n",
      "note_on channel=7 note=76 velocity=100 time=0\n",
      "note_off channel=9 note=42 velocity=64 time=0\n",
      "note_off channel=9 note=36 velocity=64 time=0\n",
      "note_on channel=9 note=36 velocity=98 time=0.234375\n",
      "note_on channel=9 note=42 velocity=98 time=0\n",
      "note_off channel=9 note=36 velocity=64 time=0.234375\n",
      "note_off channel=9 note=42 velocity=64 time=0\n",
      "note_on channel=9 note=36 velocity=98 time=0.234375\n",
      "note_on channel=9 note=42 velocity=98 time=0\n",
      "note_off channel=9 note=36 velocity=64 time=0.234375\n",
      "note_off channel=9 note=42 velocity=64 time=0\n",
      "note_off channel=7 note=76 velocity=64 time=0.1171875\n",
      "note_on channel=7 note=86 velocity=100 time=0\n",
      "note_on channel=9 note=36 velocity=98 time=0.1171875\n",
      "note_on channel=9 note=42 velocity=98 time=0\n",
      "note_off channel=7 note=86 velocity=64 time=0.1171875\n",
      "note_on channel=7 note=88 velocity=100 time=0\n",
      "note_off channel=7 note=88 velocity=64 time=0.1171875\n",
      "note_on channel=7 note=76 velocity=100 time=0\n",
      "note_off channel=9 note=36 velocity=64 time=0\n",
      "note_off channel=9 note=42 velocity=64 time=0\n",
      "note_off channel=7 note=76 velocity=64 time=0.1171875\n",
      "note_on channel=7 note=74 velocity=100 time=0\n",
      "note_off channel=7 note=74 velocity=64 time=0.1171875\n",
      "note_on channel=7 note=81 velocity=100 time=0\n",
      "note_off channel=8 note=40 velocity=64 time=0\n",
      "note_on channel=8 note=47 velocity=100 time=0\n",
      "note_on channel=9 note=36 velocity=98 time=0\n",
      "note_on channel=9 note=42 velocity=98 time=0\n",
      "note_off channel=9 note=42 velocity=64 time=0.234375\n",
      "note_off channel=9 note=36 velocity=64 time=0\n",
      "note_on channel=9 note=36 velocity=98 time=0.234375\n",
      "note_on channel=9 note=42 velocity=98 time=0\n",
      "note_off channel=9 note=36 velocity=64 time=0.234375\n",
      "note_off channel=9 note=42 velocity=64 time=0\n",
      "note_on channel=9 note=36 velocity=98 time=0.234375\n",
      "note_on channel=9 note=42 velocity=98 time=0\n",
      "note_off channel=9 note=36 velocity=64 time=0.234375\n",
      "note_off channel=9 note=42 velocity=64 time=0\n",
      "note_off channel=7 note=81 velocity=64 time=0.234375\n",
      "note_on channel=7 note=83 velocity=100 time=0\n",
      "note_on channel=9 note=36 velocity=98 time=0\n",
      "note_on channel=9 note=42 velocity=98 time=0\n",
      "note_off channel=7 note=83 velocity=64 time=0.234375\n",
      "note_on channel=7 note=81 velocity=100 time=0\n",
      "note_off channel=9 note=42 velocity=64 time=0\n",
      "note_off channel=9 note=36 velocity=64 time=0\n",
      "note_off channel=8 note=47 velocity=64 time=0.234375\n",
      "note_on channel=8 note=38 velocity=100 time=0\n",
      "note_on channel=9 note=36 velocity=98 time=0\n",
      "note_on channel=9 note=42 velocity=98 time=0\n",
      "note_off channel=7 note=81 velocity=64 time=0.234375\n",
      "note_on channel=7 note=78 velocity=100 time=0\n",
      "note_off channel=9 note=42 velocity=64 time=0\n",
      "note_off channel=9 note=36 velocity=64 time=0\n",
      "note_off channel=7 note=78 velocity=64 time=0.234375\n",
      "note_on channel=7 note=74 velocity=100 time=0\n",
      "note_on channel=9 note=36 velocity=98 time=0\n",
      "note_on channel=9 note=42 velocity=98 time=0\n",
      "note_off channel=7 note=74 velocity=64 time=0.234375\n",
      "note_on channel=7 note=76 velocity=100 time=0\n",
      "note_off channel=8 note=38 velocity=64 time=0\n",
      "note_on channel=8 note=45 velocity=100 time=0\n",
      "note_off channel=9 note=42 velocity=64 time=0\n",
      "note_off channel=9 note=36 velocity=64 time=0\n",
      "note_on channel=9 note=36 velocity=98 time=0.234375\n",
      "note_on channel=9 note=42 velocity=98 time=0\n",
      "note_off channel=9 note=36 velocity=64 time=0.234375\n",
      "note_off channel=9 note=42 velocity=64 time=0\n",
      "note_on channel=9 note=36 velocity=98 time=0.234375\n",
      "note_on channel=9 note=42 velocity=98 time=0\n",
      "note_off channel=9 note=36 velocity=64 time=0.234375\n",
      "note_off channel=9 note=42 velocity=64 time=0\n",
      "note_on channel=9 note=36 velocity=98 time=0.234375\n",
      "note_on channel=9 note=42 velocity=98 time=0\n",
      "note_off channel=9 note=36 velocity=64 time=0.234375\n",
      "note_off channel=9 note=42 velocity=64 time=0\n",
      "note_on channel=9 note=42 velocity=98 time=0.234375\n",
      "note_off channel=9 note=42 velocity=64 time=0.234375\n",
      "note_on channel=9 note=42 velocity=98 time=0.234375\n",
      "note_off channel=9 note=42 velocity=64 time=0.234375\n",
      "note_on channel=9 note=42 velocity=98 time=0.234375\n",
      "note_off channel=9 note=42 velocity=64 time=0.234375\n",
      "note_off channel=7 note=76 velocity=64 time=0.234375\n",
      "note_on channel=7 note=69 velocity=100 time=0\n",
      "note_on channel=12 note=59 velocity=100 time=0\n",
      "note_on channel=12 note=67 velocity=100 time=0\n",
      "note_on channel=12 note=64 velocity=100 time=0\n",
      "note_off channel=8 note=45 velocity=64 time=0\n",
      "note_on channel=8 note=40 velocity=100 time=0\n",
      "note_on channel=9 note=36 velocity=98 time=0\n",
      "note_off channel=7 note=69 velocity=64 time=0.1171875\n",
      "note_on channel=7 note=71 velocity=100 time=0\n",
      "note_off channel=7 note=71 velocity=64 time=0.1171875\n",
      "note_on channel=7 note=76 velocity=100 time=0\n",
      "note_off channel=9 note=36 velocity=64 time=0\n",
      "note_on channel=9 note=36 velocity=98 time=0.234375\n",
      "note_on channel=9 note=42 velocity=98 time=0\n",
      "note_off channel=9 note=36 velocity=64 time=0.234375\n",
      "note_off channel=9 note=42 velocity=64 time=0\n",
      "note_on channel=9 note=36 velocity=98 time=0.234375\n",
      "note_off channel=9 note=36 velocity=64 time=0.234375\n",
      "note_off channel=7 note=76 velocity=64 time=0.1171875\n",
      "note_on channel=7 note=76 velocity=100 time=0\n",
      "note_on channel=9 note=36 velocity=98 time=0.1171875\n",
      "note_on channel=9 note=42 velocity=98 time=0\n",
      "note_off channel=7 note=76 velocity=64 time=0.1171875\n",
      "note_on channel=7 note=71 velocity=100 time=0\n",
      "note_off channel=7 note=71 velocity=64 time=0.1171875\n",
      "note_on channel=7 note=76 velocity=100 time=0\n",
      "note_off channel=9 note=36 velocity=64 time=0\n",
      "note_off channel=9 note=42 velocity=64 time=0\n",
      "note_off channel=7 note=76 velocity=64 time=0.1171875\n",
      "note_on channel=7 note=69 velocity=100 time=0\n",
      "note_off channel=7 note=69 velocity=64 time=0.1171875\n",
      "note_on channel=7 note=79 velocity=100 time=0\n",
      "note_on channel=9 note=36 velocity=98 time=0\n",
      "note_off channel=9 note=36 velocity=64 time=0.234375\n",
      "note_on channel=9 note=42 velocity=98 time=0.234375\n",
      "note_on channel=9 note=36 velocity=98 time=0\n",
      "note_off channel=9 note=42 velocity=64 time=0.234375\n",
      "note_off channel=9 note=36 velocity=64 time=0\n",
      "note_on channel=9 note=36 velocity=98 time=0.234375\n",
      "note_off channel=9 note=36 velocity=64 time=0.234375\n",
      "note_off channel=7 note=79 velocity=64 time=0.234375\n",
      "note_on channel=7 note=78 velocity=100 time=0\n",
      "note_on channel=9 note=36 velocity=98 time=0\n",
      "note_on channel=9 note=42 velocity=98 time=0\n",
      "note_off channel=7 note=78 velocity=64 time=0.234375\n",
      "note_on channel=7 note=76 velocity=100 time=0\n",
      "note_off channel=9 note=36 velocity=64 time=0\n",
      "note_off channel=9 note=42 velocity=64 time=0\n",
      "note_off channel=7 note=76 velocity=64 time=0.234375\n",
      "note_on channel=7 note=83 velocity=100 time=0\n",
      "note_off channel=12 note=59 velocity=64 time=0\n",
      "note_off channel=12 note=67 velocity=64 time=0\n",
      "note_off channel=12 note=64 velocity=64 time=0\n",
      "note_on channel=12 note=61 velocity=100 time=0\n",
      "note_on channel=12 note=70 velocity=100 time=0\n",
      "note_on channel=12 note=66 velocity=100 time=0\n",
      "note_off channel=8 note=40 velocity=64 time=0\n",
      "note_on channel=8 note=42 velocity=100 time=0\n",
      "note_on channel=9 note=36 velocity=98 time=0\n",
      "note_off channel=7 note=83 velocity=64 time=0.234375\n",
      "note_on channel=7 note=82 velocity=100 time=0\n",
      "note_off channel=9 note=36 velocity=64 time=0\n",
      "note_off channel=7 note=82 velocity=64 time=0.234375\n",
      "note_on channel=7 note=78 velocity=100 time=0\n",
      "note_on channel=9 note=42 velocity=98 time=0\n",
      "note_on channel=9 note=36 velocity=98 time=0\n",
      "note_off channel=7 note=78 velocity=64 time=0.234375\n",
      "note_on channel=7 note=76 velocity=100 time=0\n",
      "note_off channel=12 note=66 velocity=64 time=0\n",
      "note_off channel=12 note=61 velocity=64 time=0\n",
      "note_off channel=12 note=70 velocity=64 time=0\n",
      "note_on channel=12 note=56 velocity=100 time=0\n",
      "note_on channel=12 note=64 velocity=100 time=0\n",
      "note_on channel=12 note=61 velocity=100 time=0\n",
      "note_off channel=8 note=42 velocity=64 time=0\n",
      "note_on channel=8 note=37 velocity=100 time=0\n",
      "note_off channel=9 note=36 velocity=64 time=0\n",
      "note_off channel=9 note=42 velocity=64 time=0\n",
      "note_on channel=9 note=36 velocity=98 time=0.234375\n",
      "note_off channel=9 note=36 velocity=64 time=0.234375\n",
      "note_on channel=9 note=42 velocity=98 time=0.234375\n",
      "note_on channel=9 note=36 velocity=98 time=0\n",
      "note_off channel=9 note=42 velocity=64 time=0.234375\n",
      "note_off channel=9 note=36 velocity=64 time=0\n",
      "note_on channel=9 note=36 velocity=98 time=0.234375\n",
      "note_off channel=9 note=36 velocity=64 time=0.234375\n",
      "note_on channel=9 note=36 velocity=98 time=0.234375\n",
      "note_on channel=9 note=42 velocity=98 time=0\n",
      "note_off channel=9 note=36 velocity=64 time=0.234375\n",
      "note_off channel=9 note=42 velocity=64 time=0\n",
      "note_on channel=9 note=36 velocity=98 time=0.234375\n",
      "note_off channel=9 note=36 velocity=64 time=0.234375\n",
      "note_on channel=9 note=42 velocity=98 time=0.234375\n",
      "note_on channel=9 note=36 velocity=98 time=0\n",
      "note_off channel=9 note=42 velocity=64 time=0.234375\n",
      "note_off channel=9 note=36 velocity=64 time=0\n",
      "note_off channel=7 note=76 velocity=64 time=0.234375\n",
      "note_on channel=7 note=79 velocity=100 time=0\n",
      "note_off channel=12 note=61 velocity=64 time=0\n",
      "note_off channel=12 note=64 velocity=64 time=0\n",
      "note_off channel=12 note=56 velocity=64 time=0\n",
      "note_on channel=12 note=67 velocity=100 time=0\n",
      "note_on channel=12 note=64 velocity=100 time=0\n",
      "note_on channel=12 note=60 velocity=100 time=0\n",
      "note_off channel=8 note=37 velocity=64 time=0\n",
      "note_on channel=8 note=36 velocity=100 time=0\n",
      "note_on channel=9 note=36 velocity=98 time=0\n",
      "note_off channel=7 note=79 velocity=64 time=0.1171875\n",
      "note_on channel=7 note=81 velocity=100 time=0\n",
      "note_off channel=7 note=81 velocity=64 time=0.1171875\n",
      "note_on channel=7 note=76 velocity=100 time=0\n",
      "note_off channel=9 note=36 velocity=64 time=0\n",
      "note_on channel=9 note=36 velocity=98 time=0.234375\n",
      "note_on channel=9 note=42 velocity=98 time=0\n",
      "note_off channel=9 note=36 velocity=64 time=0.234375\n",
      "note_off channel=9 note=42 velocity=64 time=0\n",
      "note_on channel=9 note=36 velocity=98 time=0.234375\n",
      "note_off channel=9 note=36 velocity=64 time=0.234375\n",
      "note_on channel=9 note=36 velocity=98 time=0.234375\n",
      "note_on channel=9 note=42 velocity=98 time=0\n",
      "note_off channel=7 note=76 velocity=64 time=0.1171875\n",
      "note_on channel=7 note=72 velocity=100 time=0\n",
      "note_off channel=7 note=72 velocity=64 time=0.1171875\n",
      "note_on channel=7 note=76 velocity=100 time=0\n",
      "note_off channel=9 note=36 velocity=64 time=0\n",
      "note_off channel=9 note=42 velocity=64 time=0\n",
      "note_off channel=7 note=76 velocity=64 time=0.1171875\n",
      "note_on channel=7 note=72 velocity=100 time=0\n",
      "note_off channel=7 note=72 velocity=64 time=0.1171875\n",
      "note_on channel=7 note=79 velocity=100 time=0\n",
      "note_on channel=9 note=36 velocity=98 time=0\n",
      "note_off channel=9 note=36 velocity=64 time=0.234375\n",
      "note_on channel=9 note=36 velocity=98 time=0.234375\n",
      "note_on channel=9 note=42 velocity=98 time=0\n",
      "note_off channel=9 note=36 velocity=64 time=0.234375\n",
      "note_off channel=9 note=42 velocity=64 time=0\n",
      "note_on channel=9 note=36 velocity=98 time=0.234375\n",
      "note_off channel=9 note=36 velocity=64 time=0.234375\n",
      "note_off channel=7 note=79 velocity=64 time=0.234375\n",
      "note_on channel=7 note=78 velocity=100 time=0\n",
      "note_off channel=12 note=60 velocity=64 time=0\n",
      "note_off channel=12 note=67 velocity=64 time=0\n",
      "note_off channel=12 note=64 velocity=64 time=0\n",
      "note_on channel=12 note=63 velocity=100 time=0\n",
      "note_on channel=12 note=66 velocity=100 time=0\n",
      "note_on channel=12 note=59 velocity=100 time=0\n",
      "note_off channel=8 note=36 velocity=64 time=0\n",
      "note_on channel=8 note=35 velocity=100 time=0\n",
      "note_on channel=9 note=42 velocity=98 time=0\n",
      "note_on channel=9 note=36 velocity=98 time=0\n",
      "note_off channel=7 note=78 velocity=64 time=0.234375\n",
      "note_on channel=7 note=76 velocity=100 time=0\n",
      "note_off channel=9 note=36 velocity=64 time=0\n",
      "note_off channel=9 note=42 velocity=64 time=0\n",
      "note_off channel=7 note=76 velocity=64 time=0.234375\n",
      "note_on channel=7 note=81 velocity=100 time=0\n",
      "note_off channel=12 note=59 velocity=64 time=0\n",
      "note_off channel=12 note=66 velocity=64 time=0\n",
      "note_off channel=12 note=63 velocity=64 time=0\n",
      "note_on channel=12 note=72 velocity=100 time=0\n",
      "note_on channel=12 note=69 velocity=100 time=0\n",
      "note_on channel=12 note=65 velocity=100 time=0\n",
      "note_off channel=8 note=35 velocity=64 time=0\n",
      "note_on channel=8 note=41 velocity=100 time=0\n",
      "note_on channel=9 note=36 velocity=98 time=0\n",
      "note_off channel=7 note=81 velocity=64 time=0.234375\n",
      "note_on channel=7 note=77 velocity=100 time=0\n",
      "note_off channel=9 note=36 velocity=64 time=0\n",
      "note_off channel=7 note=77 velocity=64 time=0.234375\n",
      "note_on channel=7 note=69 velocity=100 time=0\n",
      "note_on channel=9 note=42 velocity=98 time=0\n",
      "note_on channel=9 note=36 velocity=98 time=0\n",
      "note_off channel=7 note=69 velocity=64 time=0.234375\n",
      "note_on channel=7 note=72 velocity=100 time=0\n",
      "note_off channel=9 note=36 velocity=64 time=0\n",
      "note_off channel=9 note=42 velocity=64 time=0\n",
      "note_on channel=9 note=36 velocity=98 time=0.234375\n",
      "note_off channel=9 note=36 velocity=64 time=0.234375\n",
      "note_on channel=9 note=36 velocity=98 time=0.234375\n",
      "note_on channel=9 note=42 velocity=98 time=0\n",
      "note_off channel=9 note=36 velocity=64 time=0.234375\n",
      "note_off channel=9 note=42 velocity=64 time=0\n",
      "note_on channel=9 note=36 velocity=98 time=0.234375\n",
      "note_off channel=9 note=36 velocity=64 time=0.234375\n",
      "note_on channel=9 note=42 velocity=98 time=0.234375\n",
      "note_off channel=9 note=42 velocity=64 time=0.234375\n",
      "note_on channel=9 note=42 velocity=98 time=0.703125\n",
      "note_off channel=9 note=42 velocity=64 time=0.234375\n",
      "note_off channel=7 note=72 velocity=64 time=0.234375\n",
      "note_on channel=7 note=69 velocity=100 time=0\n",
      "note_off channel=12 note=65 velocity=64 time=0\n",
      "note_off channel=12 note=72 velocity=64 time=0\n",
      "note_off channel=12 note=69 velocity=64 time=0\n",
      "note_on channel=12 note=61 velocity=100 time=0\n",
      "note_on channel=12 note=64 velocity=100 time=0\n",
      "note_on channel=12 note=57 velocity=100 time=0\n",
      "note_off channel=8 note=41 velocity=64 time=0\n",
      "note_on channel=8 note=33 velocity=100 time=0\n",
      "note_on channel=9 note=36 velocity=98 time=0\n",
      "note_off channel=7 note=69 velocity=64 time=0.1171875\n",
      "note_on channel=7 note=71 velocity=100 time=0\n",
      "note_off channel=7 note=71 velocity=64 time=0.1171875\n",
      "note_on channel=7 note=76 velocity=100 time=0\n",
      "note_off channel=9 note=36 velocity=64 time=0\n",
      "note_on channel=9 note=36 velocity=98 time=0.234375\n",
      "note_on channel=9 note=39 velocity=98 time=0\n",
      "note_off channel=9 note=36 velocity=64 time=0.234375\n",
      "note_off channel=9 note=39 velocity=64 time=0\n",
      "note_on channel=9 note=36 velocity=98 time=0.234375\n",
      "note_off channel=9 note=36 velocity=64 time=0.234375\n",
      "note_off channel=7 note=76 velocity=64 time=0.1171875\n",
      "note_on channel=7 note=76 velocity=100 time=0\n",
      "note_on channel=9 note=36 velocity=98 time=0.1171875\n",
      "note_on channel=9 note=39 velocity=98 time=0\n",
      "note_off channel=7 note=76 velocity=64 time=0.1171875\n",
      "note_on channel=7 note=71 velocity=100 time=0\n",
      "note_off channel=7 note=71 velocity=64 time=0.1171875\n",
      "note_on channel=7 note=76 velocity=100 time=0\n",
      "note_off channel=9 note=36 velocity=64 time=0\n",
      "note_off channel=9 note=39 velocity=64 time=0\n",
      "note_off channel=7 note=76 velocity=64 time=0.1171875\n",
      "note_on channel=7 note=69 velocity=100 time=0\n",
      "note_off channel=7 note=69 velocity=64 time=0.1171875\n",
      "note_on channel=7 note=79 velocity=100 time=0\n",
      "note_on channel=9 note=36 velocity=98 time=0\n",
      "note_off channel=9 note=36 velocity=64 time=0.234375\n",
      "note_on channel=9 note=36 velocity=98 time=0.234375\n",
      "note_on channel=9 note=39 velocity=98 time=0\n",
      "note_off channel=9 note=36 velocity=64 time=0.234375\n",
      "note_off channel=9 note=39 velocity=64 time=0\n",
      "note_on channel=9 note=36 velocity=98 time=0.234375\n",
      "note_off channel=9 note=36 velocity=64 time=0.234375\n",
      "note_off channel=7 note=79 velocity=64 time=0.234375\n",
      "note_on channel=7 note=78 velocity=100 time=0\n",
      "note_on channel=9 note=36 velocity=98 time=0\n",
      "note_on channel=9 note=39 velocity=98 time=0\n",
      "note_off channel=7 note=78 velocity=64 time=0.234375\n",
      "note_on channel=7 note=76 velocity=100 time=0\n",
      "note_off channel=9 note=36 velocity=64 time=0\n",
      "note_off channel=9 note=39 velocity=64 time=0\n",
      "note_off channel=7 note=76 velocity=64 time=0.234375\n",
      "note_on channel=7 note=86 velocity=100 time=0\n",
      "note_off channel=12 note=61 velocity=64 time=0\n",
      "note_off channel=12 note=57 velocity=64 time=0\n",
      "note_off channel=12 note=64 velocity=64 time=0\n",
      "note_on channel=12 note=71 velocity=100 time=0\n",
      "note_on channel=12 note=74 velocity=100 time=0\n",
      "note_on channel=12 note=67 velocity=100 time=0\n",
      "note_off channel=8 note=33 velocity=64 time=0\n",
      "note_on channel=8 note=43 velocity=100 time=0\n",
      "note_on channel=9 note=36 velocity=98 time=0\n",
      "note_off channel=7 note=86 velocity=64 time=0.234375\n",
      "note_on channel=7 note=83 velocity=100 time=0\n",
      "note_off channel=9 note=36 velocity=64 time=0\n",
      "note_off channel=7 note=83 velocity=64 time=0.234375\n",
      "note_on channel=7 note=79 velocity=100 time=0\n",
      "note_on channel=9 note=39 velocity=98 time=0\n",
      "note_on channel=9 note=36 velocity=98 time=0\n",
      "note_off channel=7 note=79 velocity=64 time=0.234375\n",
      "note_on channel=7 note=76 velocity=100 time=0\n",
      "note_off channel=12 note=67 velocity=64 time=0\n",
      "note_off channel=12 note=71 velocity=64 time=0\n",
      "note_off channel=12 note=74 velocity=64 time=0\n",
      "note_on channel=12 note=59 velocity=100 time=0\n",
      "note_on channel=12 note=64 velocity=100 time=0\n",
      "note_on channel=12 note=67 velocity=100 time=0\n",
      "note_off channel=8 note=43 velocity=64 time=0\n",
      "note_on channel=8 note=40 velocity=100 time=0\n",
      "note_off channel=9 note=36 velocity=64 time=0\n",
      "note_off channel=9 note=39 velocity=64 time=0\n",
      "note_on channel=9 note=36 velocity=98 time=0.234375\n",
      "note_off channel=9 note=36 velocity=64 time=0.234375\n",
      "note_on channel=9 note=39 velocity=98 time=0.234375\n",
      "note_on channel=9 note=36 velocity=98 time=0\n",
      "note_off channel=9 note=39 velocity=64 time=0.234375\n",
      "note_off channel=9 note=36 velocity=64 time=0\n",
      "note_on channel=9 note=36 velocity=98 time=0.234375\n",
      "note_off channel=9 note=36 velocity=64 time=0.234375\n",
      "note_on channel=9 note=39 velocity=98 time=0.234375\n",
      "note_on channel=9 note=36 velocity=98 time=0\n",
      "note_off channel=9 note=39 velocity=64 time=0.234375\n",
      "note_off channel=9 note=36 velocity=64 time=0\n",
      "note_on channel=9 note=36 velocity=98 time=0.234375\n",
      "note_off channel=9 note=36 velocity=64 time=0.234375\n",
      "note_on channel=9 note=36 velocity=98 time=0.234375\n",
      "note_on channel=9 note=39 velocity=98 time=0\n",
      "note_off channel=9 note=36 velocity=64 time=0.234375\n",
      "note_off channel=9 note=39 velocity=64 time=0\n",
      "note_off channel=7 note=76 velocity=64 time=0.234375\n",
      "note_on channel=7 note=79 velocity=100 time=0\n",
      "note_off channel=12 note=67 velocity=64 time=0\n",
      "note_off channel=12 note=64 velocity=64 time=0\n",
      "note_off channel=12 note=59 velocity=64 time=0\n",
      "note_on channel=12 note=69 velocity=100 time=0\n",
      "note_on channel=12 note=66 velocity=100 time=0\n",
      "note_on channel=12 note=62 velocity=100 time=0\n",
      "note_off channel=8 note=40 velocity=64 time=0\n",
      "note_on channel=8 note=38 velocity=100 time=0\n",
      "note_on channel=9 note=36 velocity=98 time=0\n",
      "note_off channel=7 note=79 velocity=64 time=0.1171875\n",
      "note_on channel=7 note=81 velocity=100 time=0\n",
      "note_off channel=7 note=81 velocity=64 time=0.1171875\n",
      "note_on channel=7 note=78 velocity=100 time=0\n",
      "note_off channel=9 note=36 velocity=64 time=0\n",
      "note_on channel=9 note=39 velocity=98 time=0.234375\n",
      "note_on channel=9 note=36 velocity=98 time=0\n",
      "note_off channel=9 note=39 velocity=64 time=0.234375\n",
      "note_off channel=9 note=36 velocity=64 time=0\n",
      "note_on channel=9 note=36 velocity=98 time=0.234375\n",
      "note_off channel=9 note=36 velocity=64 time=0.234375\n",
      "note_on channel=9 note=39 velocity=98 time=0.234375\n",
      "note_on channel=9 note=36 velocity=98 time=0\n",
      "note_off channel=7 note=78 velocity=64 time=0.1171875\n",
      "note_on channel=7 note=74 velocity=100 time=0\n",
      "note_off channel=7 note=74 velocity=64 time=0.1171875\n",
      "note_on channel=7 note=78 velocity=100 time=0\n",
      "note_off channel=9 note=39 velocity=64 time=0\n",
      "note_off channel=9 note=36 velocity=64 time=0\n",
      "note_off channel=7 note=78 velocity=64 time=0.1171875\n",
      "note_on channel=7 note=74 velocity=100 time=0\n",
      "note_off channel=7 note=74 velocity=64 time=0.1171875\n",
      "note_on channel=7 note=79 velocity=100 time=0\n",
      "note_on channel=9 note=36 velocity=98 time=0\n",
      "note_off channel=9 note=36 velocity=64 time=0.234375\n",
      "note_on channel=9 note=39 velocity=98 time=0.234375\n",
      "note_on channel=9 note=36 velocity=98 time=0\n",
      "note_off channel=9 note=39 velocity=64 time=0.234375\n",
      "note_off channel=9 note=36 velocity=64 time=0\n",
      "note_on channel=9 note=36 velocity=98 time=0.234375\n",
      "note_off channel=9 note=36 velocity=64 time=0.234375\n",
      "note_off channel=7 note=79 velocity=64 time=0.234375\n",
      "note_on channel=7 note=78 velocity=100 time=0\n",
      "note_on channel=9 note=39 velocity=98 time=0\n",
      "note_on channel=9 note=36 velocity=98 time=0\n",
      "note_off channel=7 note=78 velocity=64 time=0.234375\n",
      "note_on channel=7 note=76 velocity=100 time=0\n",
      "note_off channel=9 note=39 velocity=64 time=0\n",
      "note_off channel=9 note=36 velocity=64 time=0\n",
      "note_off channel=7 note=76 velocity=64 time=0.234375\n",
      "note_on channel=7 note=81 velocity=100 time=0\n",
      "note_off channel=12 note=69 velocity=64 time=0\n",
      "note_off channel=12 note=62 velocity=64 time=0\n",
      "note_off channel=12 note=66 velocity=64 time=0\n",
      "note_on channel=12 note=72 velocity=100 time=0\n",
      "note_on channel=12 note=69 velocity=100 time=0\n",
      "note_on channel=12 note=65 velocity=100 time=0\n",
      "note_off channel=8 note=38 velocity=64 time=0\n",
      "note_on channel=8 note=41 velocity=100 time=0\n",
      "note_on channel=9 note=36 velocity=98 time=0\n",
      "note_off channel=7 note=81 velocity=64 time=0.234375\n",
      "note_on channel=7 note=77 velocity=100 time=0\n",
      "note_off channel=9 note=36 velocity=64 time=0\n",
      "note_off channel=7 note=77 velocity=64 time=0.234375\n",
      "note_on channel=7 note=69 velocity=100 time=0\n",
      "note_on channel=9 note=39 velocity=98 time=0\n",
      "note_on channel=9 note=36 velocity=98 time=0\n",
      "note_off channel=7 note=69 velocity=64 time=0.234375\n",
      "note_on channel=7 note=72 velocity=100 time=0\n",
      "note_off channel=9 note=36 velocity=64 time=0\n",
      "note_off channel=9 note=39 velocity=64 time=0\n",
      "note_on channel=9 note=36 velocity=98 time=0.234375\n",
      "note_off channel=9 note=36 velocity=64 time=0.234375\n",
      "note_on channel=9 note=39 velocity=98 time=0.234375\n",
      "note_on channel=9 note=36 velocity=98 time=0\n",
      "note_off channel=9 note=39 velocity=64 time=0.234375\n",
      "note_off channel=9 note=36 velocity=64 time=0\n",
      "note_on channel=9 note=36 velocity=98 time=0.234375\n",
      "note_off channel=9 note=36 velocity=64 time=0.234375\n",
      "note_on channel=9 note=36 velocity=98 time=0.234375\n",
      "note_on channel=9 note=39 velocity=98 time=0\n",
      "note_off channel=9 note=36 velocity=64 time=0.234375\n",
      "note_off channel=9 note=39 velocity=64 time=0\n",
      "note_on channel=9 note=36 velocity=98 time=0.234375\n",
      "note_off channel=9 note=36 velocity=64 time=0.234375\n",
      "note_on channel=9 note=39 velocity=98 time=0.234375\n",
      "note_on channel=9 note=36 velocity=98 time=0\n",
      "note_off channel=9 note=39 velocity=64 time=0.234375\n",
      "note_off channel=9 note=36 velocity=64 time=0\n",
      "note_off channel=7 note=72 velocity=64 time=0.234375\n",
      "note_off channel=12 note=65 velocity=64 time=0\n",
      "note_off channel=12 note=72 velocity=64 time=0\n",
      "note_off channel=12 note=69 velocity=64 time=0\n",
      "note_off channel=8 note=41 velocity=64 time=0\n",
      "note_on channel=9 note=36 velocity=98 time=0\n",
      "note_on channel=9 note=49 velocity=98 time=0\n",
      "note_off channel=9 note=49 velocity=64 time=0.3515625\n",
      "note_off channel=9 note=36 velocity=64 time=0\n",
      "control_change channel=7 control=101 value=0 time=1.5234375\n",
      "control_change channel=7 control=100 value=0 time=0\n",
      "control_change channel=7 control=6 value=12 time=0\n",
      "control_change channel=7 control=10 value=64 time=0\n",
      "control_change channel=7 control=7 value=100 time=0\n",
      "pitchwheel channel=7 pitch=0 time=0\n",
      "program_change channel=7 program=80 time=0\n",
      "control_change channel=12 control=101 value=0 time=0\n",
      "control_change channel=12 control=100 value=0 time=0\n",
      "control_change channel=12 control=6 value=12 time=0\n",
      "control_change channel=12 control=10 value=64 time=0\n",
      "control_change channel=12 control=7 value=100 time=0\n",
      "pitchwheel channel=12 pitch=0 time=0\n",
      "program_change channel=12 program=90 time=0\n",
      "control_change channel=8 control=101 value=0 time=0\n",
      "control_change channel=8 control=100 value=0 time=0\n",
      "control_change channel=8 control=6 value=12 time=0\n",
      "control_change channel=8 control=10 value=64 time=0\n",
      "control_change channel=8 control=7 value=100 time=0\n",
      "pitchwheel channel=8 pitch=0 time=0\n",
      "program_change channel=8 program=87 time=0\n",
      "control_change channel=9 control=101 value=0 time=0\n",
      "control_change channel=9 control=100 value=0 time=0\n",
      "control_change channel=9 control=6 value=12 time=0\n",
      "control_change channel=9 control=10 value=64 time=0\n",
      "control_change channel=9 control=7 value=100 time=0\n",
      "pitchwheel channel=9 pitch=0 time=0\n",
      "program_change channel=9 program=0 time=0\n",
      "control_change channel=0 control=101 value=0 time=0\n",
      "control_change channel=0 control=100 value=0 time=0\n",
      "control_change channel=0 control=6 value=12 time=0\n",
      "control_change channel=0 control=10 value=64 time=0\n",
      "control_change channel=0 control=7 value=100 time=0\n",
      "pitchwheel channel=0 pitch=0 time=0\n",
      "program_change channel=0 program=0 time=0\n",
      "control_change channel=0 control=101 value=0 time=0\n",
      "control_change channel=0 control=100 value=0 time=0\n",
      "control_change channel=0 control=6 value=12 time=0\n",
      "control_change channel=0 control=10 value=64 time=0\n",
      "control_change channel=0 control=7 value=100 time=0\n",
      "pitchwheel channel=0 pitch=0 time=0\n",
      "program_change channel=0 program=0 time=0\n",
      "control_change channel=0 control=101 value=0 time=0\n",
      "control_change channel=0 control=100 value=0 time=0\n",
      "control_change channel=0 control=6 value=12 time=0\n",
      "control_change channel=0 control=10 value=64 time=0\n",
      "control_change channel=0 control=7 value=100 time=0\n",
      "pitchwheel channel=0 pitch=0 time=0\n",
      "control_change channel=7 control=101 value=0 time=0.0048828125\n",
      "control_change channel=7 control=100 value=0 time=0\n",
      "control_change channel=7 control=6 value=12 time=0\n",
      "control_change channel=7 control=10 value=64 time=0\n",
      "control_change channel=7 control=7 value=100 time=0\n",
      "pitchwheel channel=7 pitch=0 time=0\n",
      "program_change channel=7 program=80 time=0\n",
      "control_change channel=7 control=101 value=0 time=0\n",
      "control_change channel=7 control=100 value=0 time=0\n",
      "control_change channel=7 control=6 value=12 time=0\n",
      "control_change channel=7 control=10 value=64 time=0\n",
      "control_change channel=7 control=7 value=100 time=0\n",
      "pitchwheel channel=7 pitch=0 time=0\n",
      "program_change channel=7 program=80 time=0\n",
      "control_change channel=12 control=101 value=0 time=0\n",
      "control_change channel=12 control=100 value=0 time=0\n",
      "control_change channel=12 control=6 value=12 time=0\n",
      "control_change channel=12 control=10 value=64 time=0\n",
      "control_change channel=12 control=7 value=100 time=0\n",
      "pitchwheel channel=12 pitch=0 time=0\n",
      "program_change channel=12 program=90 time=0\n",
      "control_change channel=12 control=101 value=0 time=0\n",
      "control_change channel=12 control=100 value=0 time=0\n",
      "control_change channel=12 control=6 value=12 time=0\n",
      "control_change channel=12 control=10 value=64 time=0\n",
      "control_change channel=12 control=7 value=100 time=0\n",
      "pitchwheel channel=12 pitch=0 time=0\n",
      "program_change channel=12 program=90 time=0\n",
      "control_change channel=8 control=101 value=0 time=0\n",
      "control_change channel=8 control=100 value=0 time=0\n",
      "control_change channel=8 control=6 value=12 time=0\n",
      "control_change channel=8 control=10 value=64 time=0\n",
      "control_change channel=8 control=7 value=100 time=0\n",
      "pitchwheel channel=8 pitch=0 time=0\n",
      "program_change channel=8 program=87 time=0\n",
      "control_change channel=8 control=101 value=0 time=0\n",
      "control_change channel=8 control=100 value=0 time=0\n",
      "control_change channel=8 control=6 value=12 time=0\n",
      "control_change channel=8 control=10 value=64 time=0\n",
      "control_change channel=8 control=7 value=100 time=0\n",
      "pitchwheel channel=8 pitch=0 time=0\n",
      "program_change channel=8 program=87 time=0\n",
      "control_change channel=9 control=101 value=0 time=0\n",
      "control_change channel=9 control=100 value=0 time=0\n",
      "control_change channel=9 control=6 value=12 time=0\n",
      "control_change channel=9 control=10 value=64 time=0\n",
      "control_change channel=9 control=7 value=100 time=0\n",
      "pitchwheel channel=9 pitch=0 time=0\n",
      "program_change channel=9 program=0 time=0\n",
      "control_change channel=9 control=101 value=0 time=0\n",
      "control_change channel=9 control=100 value=0 time=0\n",
      "control_change channel=9 control=6 value=12 time=0\n",
      "control_change channel=9 control=10 value=64 time=0\n",
      "control_change channel=9 control=7 value=100 time=0\n",
      "pitchwheel channel=9 pitch=0 time=0\n",
      "program_change channel=9 program=0 time=0\n",
      "control_change channel=0 control=101 value=0 time=0\n",
      "control_change channel=0 control=100 value=0 time=0\n",
      "control_change channel=0 control=6 value=12 time=0\n",
      "control_change channel=0 control=10 value=64 time=0\n",
      "control_change channel=0 control=7 value=100 time=0\n",
      "pitchwheel channel=0 pitch=0 time=0\n",
      "program_change channel=0 program=0 time=0\n",
      "control_change channel=0 control=101 value=0 time=0\n",
      "control_change channel=0 control=100 value=0 time=0\n",
      "control_change channel=0 control=6 value=12 time=0\n",
      "control_change channel=0 control=10 value=64 time=0\n",
      "control_change channel=0 control=7 value=100 time=0\n",
      "pitchwheel channel=0 pitch=0 time=0\n",
      "program_change channel=0 program=0 time=0\n",
      "control_change channel=0 control=101 value=0 time=0\n",
      "control_change channel=0 control=100 value=0 time=0\n",
      "control_change channel=0 control=6 value=12 time=0\n",
      "control_change channel=0 control=10 value=64 time=0\n",
      "control_change channel=0 control=7 value=100 time=0\n",
      "pitchwheel channel=0 pitch=0 time=0\n",
      "program_change channel=0 program=0 time=0\n",
      "control_change channel=0 control=101 value=0 time=0\n",
      "control_change channel=0 control=100 value=0 time=0\n",
      "control_change channel=0 control=6 value=12 time=0\n",
      "control_change channel=0 control=10 value=64 time=0\n",
      "control_change channel=0 control=7 value=100 time=0\n",
      "pitchwheel channel=0 pitch=0 time=0\n",
      "program_change channel=0 program=0 time=0\n",
      "control_change channel=0 control=101 value=0 time=0\n",
      "control_change channel=0 control=100 value=0 time=0\n",
      "control_change channel=0 control=6 value=12 time=0\n",
      "control_change channel=0 control=10 value=64 time=0\n",
      "control_change channel=0 control=7 value=100 time=0\n",
      "pitchwheel channel=0 pitch=0 time=0\n",
      "control_change channel=0 control=101 value=0 time=0\n",
      "control_change channel=0 control=100 value=0 time=0\n",
      "control_change channel=0 control=6 value=12 time=0\n",
      "control_change channel=0 control=10 value=64 time=0\n",
      "control_change channel=0 control=7 value=100 time=0\n",
      "pitchwheel channel=0 pitch=0 time=0\n",
      "<meta message end_of_track time=0>\n"
     ]
    }
   ],
   "source": [
    "for message in file:\n",
    "    print(message)\n",
    "    plt.plot()"
   ]
  },
  {
   "cell_type": "code",
   "execution_count": null,
   "metadata": {},
   "outputs": [],
   "source": []
  }
 ],
 "metadata": {
  "kernelspec": {
   "display_name": "Python 3",
   "language": "python",
   "name": "python3"
  },
  "language_info": {
   "codemirror_mode": {
    "name": "ipython",
    "version": 3
   },
   "file_extension": ".py",
   "mimetype": "text/x-python",
   "name": "python",
   "nbconvert_exporter": "python",
   "pygments_lexer": "ipython3",
   "version": "3.6.3"
  }
 },
 "nbformat": 4,
 "nbformat_minor": 2
}
